<?xml version="1.0" standalone="no"?>
<!DOCTYPE svg PUBLIC "-//W3C//DTD SVG 20010904//EN"
 "http://www.w3.org/TR/2001/REC-SVG-20010904/DTD/svg10.dtd">
<svg version="1.0" xmlns="http://www.w3.org/2000/svg"
 width="1461.000000pt" height="1461.000000pt" viewBox="0 0 1461.000000 1461.000000"
 preserveAspectRatio="xMidYMid meet">
<metadata>
Created by potrace 1.11, written by Peter Selinger 2001-2013
</metadata>
<g transform="translate(0.000000,1461.000000) scale(0.100000,-0.100000)"
fill="#000000" stroke="none">
<path d="M1776 14594 c-9 -8 -17 -18 -17 -22 -1 -4 -2 -3274 -3 -7266 -1
-7028 -1 -7260 17 -7283 l18 -23 1008 0 c854 0 1010 2 1027 14 19 14 19 50 21
2293 1 1253 2 2285 2 2293 1 8 12 29 26 45 48 56 110 128 155 179 25 29 70 81
100 116 30 35 64 74 75 86 11 12 29 33 39 46 33 40 129 152 158 183 15 17 115
133 223 259 108 126 202 235 208 241 7 7 30 34 52 61 22 27 72 85 110 129 39
44 125 143 190 220 66 77 124 145 130 151 5 6 35 39 65 74 30 35 60 68 65 74
6 6 46 52 89 103 l79 92 21 -27 c11 -15 24 -31 29 -37 4 -5 72 -102 152 -215
79 -113 150 -213 157 -222 7 -10 28 -39 46 -65 78 -111 332 -469 339 -478 4
-5 26 -37 48 -70 22 -33 43 -62 46 -65 3 -3 225 -315 494 -695 269 -379 573
-809 676 -955 104 -146 193 -272 199 -280 405 -573 571 -807 577 -815 5 -5 38
-52 73 -103 36 -51 79 -112 96 -135 30 -40 231 -326 266 -377 15 -22 353 -499
926 -1305 109 -154 257 -362 328 -463 71 -101 156 -220 189 -265 l60 -82 1247
0 c942 0 1250 3 1259 12 6 6 11 22 11 36 1 22 -16 49 -134 211 -24 32 -60 84
-81 115 -21 31 -47 67 -57 81 -22 29 -302 421 -352 493 -18 26 -61 87 -96 135
-34 48 -69 96 -77 107 -163 230 -840 1180 -880 1235 -30 41 -187 262 -349 490
-163 228 -302 424 -310 435 -8 11 -52 73 -98 137 -263 370 -644 904 -651 913
-16 21 -263 367 -277 390 -13 20 -561 789 -606 850 -14 20 -354 496 -662 930
-86 121 -160 225 -164 230 -5 6 -58 80 -118 165 -60 85 -113 160 -117 165 -5
6 -103 143 -218 305 -115 162 -213 300 -217 305 -12 15 -363 508 -371 521 -4
7 29 52 76 106 45 52 105 121 132 153 28 32 55 63 60 69 6 6 64 74 130 151 66
77 122 142 125 145 3 3 32 37 65 75 33 39 62 72 65 75 5 5 101 117 141 164 13
16 35 41 49 56 29 32 55 62 130 150 79 93 112 131 136 156 11 12 30 34 42 49
12 15 46 55 76 89 29 33 123 142 209 241 85 99 168 194 183 212 16 18 39 45
51 60 12 15 40 48 63 73 23 25 55 62 71 82 17 20 38 46 47 56 10 10 42 47 72
82 30 34 60 68 65 74 6 6 66 76 135 156 146 171 245 285 276 320 43 49 232
268 354 410 68 80 131 152 139 161 9 8 36 40 61 69 25 29 137 160 250 289 112
130 211 244 220 254 8 10 23 28 33 40 10 12 40 47 67 77 26 30 96 111 155 180
59 69 122 141 139 160 43 48 138 160 162 189 10 13 24 28 30 35 17 18 96 108
149 171 28 32 55 63 60 69 6 6 66 76 134 156 69 80 132 152 140 161 9 9 25 27
35 40 11 13 49 58 85 99 36 41 74 86 86 99 19 23 184 214 289 335 81 95 102
118 148 172 39 45 133 154 182 208 92 105 104 134 63 161 -21 13 -173 15
-1332 13 l-1309 -3 -115 -131 c-64 -72 -138 -158 -166 -190 -27 -32 -61 -71
-75 -85 -14 -15 -34 -38 -44 -51 -25 -29 -129 -151 -136 -158 -3 -3 -34 -39
-69 -80 -36 -41 -70 -79 -75 -85 -6 -5 -36 -39 -66 -75 -30 -36 -63 -74 -73
-85 -10 -11 -71 -81 -135 -155 -64 -74 -126 -144 -137 -155 -11 -11 -36 -41
-56 -65 -20 -25 -47 -56 -60 -71 -13 -14 -49 -54 -79 -89 -99 -116 -105 -123
-120 -139 -9 -9 -43 -47 -75 -86 -33 -38 -64 -75 -70 -81 -15 -17 -107 -122
-270 -309 -81 -93 -171 -197 -200 -230 -28 -33 -67 -78 -86 -100 -19 -22 -36
-42 -39 -45 -3 -3 -50 -57 -105 -120 -54 -63 -109 -126 -122 -140 -13 -14 -32
-36 -44 -50 -11 -14 -42 -50 -69 -80 -27 -30 -117 -134 -201 -230 -84 -96
-174 -200 -200 -230 -26 -30 -57 -66 -69 -80 -12 -14 -43 -50 -69 -80 -27 -30
-144 -165 -261 -300 -117 -135 -229 -263 -249 -286 -20 -22 -61 -69 -91 -104
-30 -35 -62 -71 -70 -80 -8 -9 -40 -45 -70 -80 -30 -36 -100 -117 -156 -180
-55 -63 -111 -128 -125 -144 -13 -16 -29 -34 -34 -40 -6 -6 -53 -60 -105 -121
-52 -60 -102 -116 -110 -125 -8 -9 -40 -45 -70 -80 -98 -113 -134 -155 -195
-225 -33 -38 -72 -82 -87 -99 -68 -79 -194 -224 -221 -254 -32 -37 -147 -170
-187 -216 -14 -16 -32 -37 -40 -46 -8 -9 -55 -63 -105 -120 -49 -58 -94 -110
-100 -116 -5 -6 -35 -39 -65 -74 -30 -35 -75 -87 -100 -115 -25 -28 -70 -80
-100 -115 -95 -111 -125 -145 -130 -150 -3 -3 -46 -52 -95 -110 -50 -58 -96
-111 -102 -118 -16 -16 -14 -427 -15 3570 0 2602 -2 3170 -13 3185 -13 17 -64
18 -1028 21 -916 2 -1017 1 -1031 -14z"/>
</g>
</svg>
