<svg xmlns="http://www.w3.org/2000/svg" style="display: none;"><symbol id="tel" viewBox="0 0 482.6 482.6"><title>Телефон</title><path d="M98.339,320.8c47.6,56.9,104.9,101.7,170.3,133.4c24.9,11.8,58.2,25.8,95.3,28.2c2.3,0.1,4.5,0.2,6.8,0.2 c24.9,0,44.9-8.6,61.2-26.3c0.1-0.1,0.3-0.3,0.4-0.5c5.8-7,12.4-13.3,19.3-20c4.7-4.5,9.5-9.2,14.1-14 c21.3-22.2,21.3-50.4-0.2-71.9l-60.1-60.1c-10.2-10.6-22.4-16.2-35.2-16.2c-12.8,0-25.1,5.6-35.6,16.1l-35.8,35.8 c-3.3-1.9-6.7-3.6-9.9-5.2c-4-2-7.7-3.9-11-6c-32.6-20.7-62.2-47.7-90.5-82.4c-14.3-18.1-23.9-33.3-30.6-48.8 c9.4-8.5,18.2-17.4,26.7-26.1c3-3.1,6.1-6.2,9.2-9.3c10.8-10.8,16.6-23.3,16.6-36s-5.7-25.2-16.6-36l-29.8-29.8 c-3.5-3.5-6.8-6.9-10.2-10.4c-6.6-6.8-13.5-13.8-20.3-20.1c-10.3-10.1-22.4-15.4-35.2-15.4c-12.7,0-24.9,5.3-35.6,15.5l-37.4,37.4 c-13.6,13.6-21.3,30.1-22.9,49.2c-1.9,23.9,2.5,49.3,13.9,80C32.739,229.6,59.139,273.7,98.339,320.8z M25.739,104.2 c1.2-13.3,6.3-24.4,15.9-34l37.2-37.2c5.8-5.6,12.2-8.5,18.4-8.5c6.1,0,12.3,2.9,18,8.7c6.7,6.2,13,12.7,19.8,19.6 c3.4,3.5,6.9,7,10.4,10.6l29.8,29.8c6.2,6.2,9.4,12.5,9.4,18.7s-3.2,12.5-9.4,18.7c-3.1,3.1-6.2,6.3-9.3,9.4 c-9.3,9.4-18,18.3-27.6,26.8c-0.2,0.2-0.3,0.3-0.5,0.5c-8.3,8.3-7,16.2-5,22.2c0.1,0.3,0.2,0.5,0.3,0.8 c7.7,18.5,18.4,36.1,35.1,57.1c30,37,61.6,65.7,96.4,87.8c4.3,2.8,8.9,5,13.2,7.2c4,2,7.7,3.9,11,6c0.4,0.2,0.7,0.4,1.1,0.6 c3.3,1.7,6.5,2.5,9.7,2.5c8,0,13.2-5.1,14.9-6.8l37.4-37.4c5.8-5.8,12.1-8.9,18.3-8.9c7.6,0,13.8,4.7,17.7,8.9l60.3,60.2 c12,12,11.9,25-0.3,37.7c-4.2,4.5-8.6,8.8-13.3,13.3c-7,6.8-14.3,13.8-20.9,21.7c-11.5,12.4-25.2,18.2-42.9,18.2 c-1.7,0-3.5-0.1-5.2-0.2c-32.8-2.1-63.3-14.9-86.2-25.8c-62.2-30.1-116.8-72.8-162.1-127c-37.3-44.9-62.4-86.7-79-131.5 C28.039,146.4,24.139,124.3,25.739,104.2z"/></symbol><symbol id="arrow" viewBox="0 0 451.846 451.847"><path d="M345.441,248.292L151.154,442.573c-12.359,12.365-32.397,12.365-44.75,0c-12.354-12.354-12.354-32.391,0-44.744 L278.318,225.92L106.409,54.017c-12.354-12.359-12.354-32.394,0-44.748c12.354-12.359,32.391-12.359,44.75,0l194.287,194.284 c6.177,6.18,9.262,14.271,9.262,22.366C354.708,234.018,351.617,242.115,345.441,248.292z"/></symbol><symbol id="arrow-long" viewBox="0 0 31.49 31.49"><path d="M21.205,5.007c-0.429-0.444-1.143-0.444-1.587,0c-0.429,0.429-0.429,1.143,0,1.571l8.047,8.047H1.111 C0.492,14.626,0,15.118,0,15.737c0,0.619,0.492,1.127,1.111,1.127h26.554l-8.047,8.032c-0.429,0.444-0.429,1.159,0,1.587 c0.444,0.444,1.159,0.444,1.587,0l9.952-9.952c0.444-0.429,0.444-1.143,0-1.571L21.205,5.007z"/></symbol><symbol id="address" viewBox="0 0 488.8 488.8"><title>Адрес</title><path d="M244.252,97.4c-56.4,0-102.2,45.9-102.2,102.2s45.8,102.3,102.2,102.3s102.2-45.9,102.2-102.2S300.652,97.4,244.252,97.4z M244.252,277.4c-42.9,0-77.7-34.9-77.7-77.7s34.9-77.7,77.7-77.7s77.7,34.9,77.7,77.7S287.152,277.4,244.252,277.4z"/><path d="M244.252,0c-2.3,0-4.7,0-7,0.1c-98.6,3.4-180.1,80-189.5,178.1c-1.8,19-0.9,38.1,2.6,56.3c0,0,0.3,2.3,1.4,6.6 c3,13.5,7.5,26.6,13.2,38.8c20.3,48.1,64.8,122.2,161.4,202.4c5.1,4.2,11.5,6.5,18.1,6.5c6.6,0,13-2.3,18.1-6.5 c96.5-80.1,141-154.3,161.2-202c5.8-12.5,10.3-25.7,13.3-39.1c0.6-2.4,1-4.4,1.3-6.3c2.4-12.3,3.6-24.9,3.6-37.5 C441.752,88.6,353.152,0,244.252,0z M414.052,230.7c0,0.2-0.3,1.9-1,5c-2.7,11.8-6.6,23.3-11.8,34.7 c-19.3,45.6-61.7,116.1-154.4,193c-0.9,0.7-1.8,0.9-2.5,0.9c-0.6,0-1.6-0.2-2.5-0.9c-92.7-77-135.2-147.5-154.6-193.4 c-5.1-11-9-22.5-11.7-34.4c-0.6-2.6-0.9-4.2-1-4.7c0-0.2-0.1-0.4-0.1-0.6c-3.1-16.3-3.9-33.1-2.3-49.7c8.3-85.9,79.6-153,166-156 c98.1-3.4,179.1,75.4,179.1,172.9C417.252,208.5,416.152,219.5,414.052,230.7z"/></symbol><symbol id="close" viewBox="0 0 47.971 47.971"><title>Закрыть</title><path d="M28.228,23.986L47.092,5.122c1.172-1.171,1.172-3.071,0-4.242c-1.172-1.172-3.07-1.172-4.242,0L23.986,19.744L5.121,0.88 c-1.172-1.172-3.07-1.172-4.242,0c-1.172,1.171-1.172,3.071,0,4.242l18.865,18.864L0.879,42.85c-1.172,1.171-1.172,3.071,0,4.242 C1.465,47.677,2.233,47.97,3,47.97s1.535-0.293,2.121-0.879l18.865-18.864L42.85,47.091c0.586,0.586,1.354,0.879,2.121,0.879 s1.535-0.293,2.121-0.879c1.172-1.171,1.172-3.071,0-4.242L28.228,23.986z"/></symbol><symbol id="star" viewBox="0 0 19.481 19.481"><path d="m10.201,.758l2.478,5.865 6.344,.545c0.44,0.038 0.619,0.587 0.285,0.876l-4.812,4.169 1.442,6.202c0.1,0.431-0.367,0.77-0.745,0.541l-5.452-3.288-5.452,3.288c-0.379,0.228-0.845-0.111-0.745-0.541l1.442-6.202-4.813-4.17c-0.334-0.289-0.156-0.838 0.285-0.876l6.344-.545 2.478-5.864c0.172-0.408 0.749-0.408 0.921,0z"/></symbol></svg>